<svg
  width="150"
  height="150"
  viewBox="0 0 32 32"
  fill="none"
  xmlns="http://www.w3.org/2000/svg"
>
  <path
    d="M27.5932 6.82715C28.3534 6.82715 28.7342 7.74631 28.1966 8.28388L11.5566 24.9239C11.3966 25.0839 11.1795 25.1738 10.9532 25.1738H2.07709C1.31447 25.1738 0.934827 24.2497 1.47719 23.7136L18.3107 7.07361C18.4704 6.9157 18.686 6.82715 18.9106 6.82715H27.5932ZM28.1477 23.7089C28.6966 24.243 28.3185 25.1738 27.5526 25.1738H18.7424C18.4914 25.1738 18.2532 25.0633 18.091 24.8717L16.5413 23.0402C16.2408 22.685 16.278 22.1566 16.6282 21.8503C17.8695 20.765 20.5927 18.3928 21.4791 17.6923C21.6534 17.5545 21.8491 17.5805 22.0084 17.7355L28.1477 23.7089Z"
    fill="#5676A9"
  />
</svg>
