<svg width="130" height="32" viewBox="0 0 130 32" fill="none" xmlns="http://www.w3.org/2000/svg">
<path d="M27.5932 6.82715C28.3534 6.82715 28.7342 7.74631 28.1966 8.28388L11.5566 24.9239C11.3966 25.0839 11.1795 25.1738 10.9532 25.1738H2.07709C1.31447 25.1738 0.934827 24.2497 1.47719 23.7136L18.3107 7.07361C18.4704 6.9157 18.686 6.82715 18.9106 6.82715H27.5932ZM28.1477 23.7089C28.6966 24.243 28.3185 25.1738 27.5526 25.1738H18.7424C18.4914 25.1738 18.2532 25.0633 18.091 24.8717L16.5413 23.0402C16.2408 22.685 16.278 22.1566 16.6282 21.8503C17.8695 20.765 20.5927 18.3928 21.4791 17.6923C21.6534 17.5545 21.8491 17.5805 22.0084 17.7355L28.1477 23.7089Z" fill="#5676A9"/>
<path d="M114.373 23.5944V12.4931H116.416L116.543 13.7992C116.795 13.434 117.076 13.1532 117.385 12.9565C117.708 12.7459 118.052 12.5914 118.417 12.4931C118.783 12.3948 119.155 12.3457 119.534 12.3457C120.278 12.3457 120.889 12.5001 121.367 12.8091C121.858 13.118 122.237 13.5393 122.504 14.073C122.771 13.6938 123.073 13.3778 123.41 13.1251C123.747 12.8582 124.119 12.6616 124.526 12.5352C124.934 12.4089 125.369 12.3457 125.832 12.3457C126.661 12.3457 127.328 12.5282 127.834 12.8934C128.353 13.2444 128.725 13.7219 128.95 14.3258C129.189 14.9296 129.308 15.6248 129.308 16.4112V23.5944H127.117V17.2749C127.117 16.9379 127.103 16.6008 127.075 16.2638C127.047 15.9267 126.963 15.6108 126.822 15.3158C126.696 15.0069 126.507 14.7611 126.254 14.5786C126.015 14.382 125.671 14.2836 125.222 14.2836C124.786 14.2836 124.421 14.382 124.126 14.5786C123.845 14.7752 123.614 15.042 123.431 15.379C123.262 15.702 123.136 16.0531 123.052 16.4323C122.982 16.8115 122.946 17.1906 122.946 17.5698V23.5944H120.756V17.2538C120.756 16.9308 120.742 16.6008 120.714 16.2638C120.686 15.9267 120.615 15.6108 120.503 15.3158C120.391 15.0069 120.201 14.7611 119.934 14.5786C119.681 14.382 119.337 14.2836 118.902 14.2836C118.27 14.2836 117.779 14.4662 117.427 14.8313C117.09 15.1824 116.859 15.6178 116.732 16.1374C116.606 16.6429 116.543 17.1274 116.543 17.5909V23.5944H114.373Z" fill="black"/>
<path d="M106.935 23.7208C105.376 23.7208 104.182 23.3136 103.354 22.4991C102.539 21.6705 102.132 20.4136 102.132 18.7284V12.4931H104.302V18.602C104.302 19.262 104.393 19.8308 104.576 20.3083C104.772 20.7858 105.067 21.1509 105.46 21.4037C105.854 21.6564 106.352 21.7828 106.956 21.7828C107.588 21.7828 108.093 21.6564 108.473 21.4037C108.866 21.1368 109.147 20.7647 109.315 20.2872C109.498 19.8097 109.589 19.248 109.589 18.602V12.4931H111.759V18.7284C111.759 20.4417 111.337 21.7056 110.495 22.5201C109.666 23.3206 108.48 23.7208 106.935 23.7208Z" fill="black"/>
<path d="M97.3193 23.5944V12.4931H99.489V23.5944H97.3193ZM98.3936 11.0186C97.9723 11.0186 97.6282 10.8922 97.3614 10.6394C97.1086 10.3726 96.9822 10.0355 96.9822 9.62825C96.9822 9.22099 97.1157 8.89097 97.3825 8.63819C97.6493 8.37137 97.9863 8.23795 98.3936 8.23795C98.7728 8.23795 99.1028 8.37137 99.3837 8.63819C99.6786 8.89097 99.826 9.22099 99.826 9.62825C99.826 10.0355 99.6856 10.3726 99.4047 10.6394C99.1379 10.8922 98.8009 11.0186 98.3936 11.0186Z" fill="black"/>
<path d="M92.4644 23.5944V8.70139H94.6341V23.5944H92.4644Z" fill="black"/>
<path d="M87.6096 23.5944V12.4931H89.7793V23.5944H87.6096ZM88.6839 11.0186C88.2626 11.0186 87.9185 10.8922 87.6517 10.6394C87.3989 10.3726 87.2725 10.0355 87.2725 9.62825C87.2725 9.22099 87.4059 8.89097 87.6728 8.63819C87.9396 8.37137 88.2766 8.23795 88.6839 8.23795C89.0631 8.23795 89.3931 8.37137 89.674 8.63819C89.9689 8.89097 90.1163 9.22099 90.1163 9.62825C90.1163 10.0355 89.9759 10.3726 89.695 10.6394C89.4282 10.8922 89.0912 11.0186 88.6839 11.0186Z" fill="black"/>
<path d="M81.0211 23.7208C80.5015 23.7208 79.9819 23.6717 79.4623 23.5734C78.9427 23.4751 78.4582 23.2995 78.0088 23.0467C77.5594 22.794 77.1802 22.4569 76.8713 22.0356C76.5623 21.6003 76.3657 21.0666 76.2815 20.4347H78.4933C78.6057 20.7717 78.8023 21.0456 79.0831 21.2562C79.378 21.4669 79.701 21.6213 80.0521 21.7196C80.4173 21.8179 80.7754 21.8671 81.1264 21.8671C81.3371 21.8671 81.5688 21.8531 81.8216 21.825C82.0884 21.7969 82.3412 21.7337 82.5799 21.6354C82.8187 21.5371 83.0153 21.3966 83.1698 21.2141C83.3242 21.0175 83.4015 20.7577 83.4015 20.4347C83.4015 20.1819 83.3313 19.9712 83.1908 19.8027C83.0644 19.6342 82.8819 19.5008 82.6431 19.4025C82.4184 19.2901 82.1446 19.2059 81.8216 19.1497C81.1896 19.0093 80.5085 18.8759 79.7783 18.7495C79.0621 18.609 78.4301 18.3703 77.8824 18.0332C77.6858 17.9069 77.5103 17.7664 77.3558 17.6119C77.2013 17.4434 77.0679 17.2538 76.9556 17.0432C76.8432 16.8325 76.7589 16.6078 76.7028 16.3691C76.6466 16.1304 76.6185 15.8706 76.6185 15.5897C76.6185 15.0139 76.7309 14.5224 76.9556 14.1151C77.1943 13.7079 77.5173 13.3778 77.9245 13.1251C78.3318 12.8582 78.7952 12.6616 79.3148 12.5352C79.8345 12.4089 80.3821 12.3457 80.9579 12.3457C81.7022 12.3457 82.3763 12.465 82.9802 12.7038C83.584 12.9425 84.0826 13.2936 84.4758 13.757C84.869 14.2205 85.1007 14.8033 85.171 15.5054H83.1276C83.0434 15.1263 82.7976 14.8243 82.3904 14.5996C81.9971 14.3609 81.4986 14.2415 80.8947 14.2415C80.6841 14.2415 80.4524 14.2556 80.1996 14.2836C79.9608 14.3117 79.7291 14.3749 79.5044 14.4732C79.2797 14.5715 79.0972 14.712 78.9567 14.8945C78.8163 15.0631 78.7461 15.2878 78.7461 15.5686C78.7461 15.8354 78.8093 16.0601 78.9357 16.2427C79.0761 16.4253 79.2727 16.5727 79.5255 16.6851C79.7923 16.7974 80.0943 16.8887 80.4313 16.9589C80.9088 17.0713 81.4214 17.1766 81.9691 17.2749C82.5308 17.3732 82.9872 17.4785 83.3383 17.5909C83.8017 17.7173 84.1949 17.8998 84.5179 18.1386C84.855 18.3773 85.1078 18.6792 85.2763 19.0444C85.4588 19.4095 85.5501 19.8519 85.5501 20.3715C85.5501 21.0456 85.4167 21.6003 85.1499 22.0356C84.8831 22.4569 84.525 22.794 84.0756 23.0467C83.6402 23.2995 83.1487 23.4751 82.601 23.5734C82.0674 23.6717 81.5407 23.7208 81.0211 23.7208Z" fill="black"/>
<path d="M64.3227 23.5944V12.4931H66.3871L66.4924 14.0519C66.7733 13.6447 67.1103 13.3217 67.5035 13.0829C67.8968 12.8302 68.3181 12.6476 68.7675 12.5352C69.2169 12.4089 69.6522 12.3457 70.0735 12.3457C71.1408 12.3457 71.9764 12.5774 72.5803 13.0408C73.1982 13.4902 73.6335 14.1011 73.8863 14.8735C74.1531 15.6318 74.2865 16.4955 74.2865 17.4645V23.5944H72.0957V17.9069C72.0957 17.4575 72.0677 17.0151 72.0115 16.5798C71.9553 16.1444 71.8359 15.7582 71.6534 15.4212C71.4849 15.0701 71.2391 14.7962 70.9161 14.5996C70.5931 14.389 70.1578 14.2836 69.6101 14.2836C68.936 14.2836 68.3672 14.4662 67.9038 14.8313C67.4404 15.1965 67.0893 15.688 66.8505 16.3059C66.6118 16.9238 66.4924 17.619 66.4924 18.3914V23.5944H64.3227Z" fill="black"/>
<path d="M56.7245 23.7208C55.5729 23.7208 54.5969 23.4891 53.7964 23.0257C52.9959 22.5482 52.385 21.8811 51.9637 21.0245C51.5565 20.1678 51.3528 19.1778 51.3528 18.0543C51.3528 16.9168 51.5635 15.9267 51.9848 15.0841C52.4061 14.2275 53.017 13.5604 53.8175 13.0829C54.6179 12.5914 55.594 12.3457 56.7455 12.3457C57.8971 12.3457 58.8731 12.5914 59.6736 13.0829C60.474 13.5604 61.0779 14.2275 61.4852 15.0841C61.8924 15.9408 62.0961 16.9379 62.0961 18.0754C62.0961 19.1848 61.8854 20.1678 61.4641 21.0245C61.0568 21.8811 60.453 22.5482 59.6525 23.0257C58.8661 23.4891 57.8901 23.7208 56.7245 23.7208ZM56.7245 21.7828C57.4828 21.7828 58.0937 21.6143 58.5571 21.2773C59.0346 20.9402 59.3857 20.4908 59.6104 19.9291C59.8351 19.3533 59.9474 18.7284 59.9474 18.0543C59.9474 17.3802 59.8351 16.7623 59.6104 16.2006C59.3857 15.6388 59.0346 15.1895 58.5571 14.8524C58.0937 14.5013 57.4828 14.3258 56.7245 14.3258C55.9802 14.3258 55.3693 14.5013 54.8918 14.8524C54.4143 15.1895 54.0632 15.6388 53.8385 16.2006C53.6279 16.7623 53.5226 17.3802 53.5226 18.0543C53.5226 18.7424 53.6279 19.3674 53.8385 19.9291C54.0632 20.4908 54.4143 20.9402 54.8918 21.2773C55.3693 21.6143 55.9802 21.7828 56.7245 21.7828Z" fill="black"/>
<path d="M43.4317 23.763C41.901 23.763 40.616 23.44 39.5768 22.794C38.5516 22.148 37.7792 21.2562 37.2596 20.1187C36.74 18.9812 36.4802 17.6681 36.4802 16.1795C36.4802 14.6909 36.74 13.3708 37.2596 12.2193C37.7933 11.0677 38.5727 10.1689 39.5978 9.52293C40.637 8.86289 41.922 8.53287 43.4528 8.53287C44.5622 8.53287 45.5312 8.71543 46.3597 9.08056C47.1883 9.43165 47.8554 9.93721 48.3609 10.5972C48.8805 11.2432 49.2246 12.0156 49.3931 12.9144H47.2024C46.9917 12.1982 46.5634 11.6294 45.9174 11.2081C45.2714 10.7868 44.4428 10.5762 43.4317 10.5762C42.3082 10.5762 41.4024 10.836 40.7143 11.3556C40.0402 11.8752 39.5487 12.5563 39.2397 13.3989C38.9308 14.2275 38.7763 15.1263 38.7763 16.0953C38.7763 17.0923 38.9378 18.0192 39.2608 18.8759C39.5838 19.7325 40.0964 20.4206 40.7985 20.9402C41.5007 21.4598 42.3995 21.7196 43.4949 21.7196C44.169 21.7196 44.7658 21.6284 45.2854 21.4458C45.805 21.2492 46.2404 20.9753 46.5915 20.6243C46.9425 20.2591 47.1813 19.8378 47.3077 19.3603H49.6459C49.4633 20.2732 49.0912 21.0596 48.5295 21.7196C47.9677 22.3797 47.2585 22.8853 46.4019 23.2363C45.5452 23.5874 44.5552 23.763 43.4317 23.763Z" fill="black"/>
</svg>
